<svg width="24" height="24" viewBox="0 0 24 24" fill="none" xmlns="http://www.w3.org/2000/svg">
<g id="Frame" clip-path="url(#clip0_45_4061)">
<g id="Group 23">
<path id="Vector (Stroke)" d="M12.0273 5C12.5105 5.00063 12.902 5.39274 12.9015 5.87585L12.8853 18.1258C12.8846 18.609 12.4925 19.0005 12.0094 19C11.5262 18.9994 11.1348 18.6073 11.1353 18.1241L11.1515 5.87415C11.1521 5.39092 11.5441 4.9994 12.0273 5Z" fill="#464646"/>
<path id="Vector (Stroke)_2" d="M18.125 11.125C18.6082 11.125 19 11.5167 19 12C19 12.4832 18.6082 12.875 18.125 12.875H5.875C5.39175 12.875 5 12.4832 5 12C5 11.5167 5.39175 11.125 5.875 11.125H18.125Z" fill="#464646"/>
</g>
</g>
<defs>
<clipPath id="clip0_45_4061">
<rect width="24" height="24" fill="white"/>
</clipPath>
</defs>
</svg>
