<svg width="25" height="24" viewBox="0 0 25 24" fill="none" xmlns="http://www.w3.org/2000/svg">
<g id="Frame" clip-path="url(#clip0_36_3022)">
<g id="Group 17">
<path id="Vector (Stroke)" d="M19.7262 5.22537C20.2251 5.22537 20.6295 5.62979 20.6295 6.12866C20.6295 6.62753 20.2251 7.03194 19.7262 7.03194H5.27365C4.77478 7.03194 4.37036 6.62753 4.37036 6.12866C4.37036 5.62979 4.77478 5.22537 5.27365 5.22537H19.7262Z" fill="#B4C1C5"/>
<path id="Vector (Stroke)_2" d="M15.21 2.5155C15.7088 2.5155 16.1132 2.91992 16.1132 3.41879C16.1132 3.91766 15.7088 4.32207 15.21 4.32207H9.79025C9.29138 4.32207 8.88696 3.91766 8.88696 3.41879C8.88696 2.91992 9.29138 2.5155 9.79025 2.5155H15.21Z" fill="#B4C1C5"/>
<path id="Vector (Stroke)_3" d="M17.0164 9.74178H7.98357V19.2263C7.98357 19.4757 8.18576 19.6779 8.43522 19.6779H16.5648C16.8142 19.6779 17.0164 19.4757 17.0164 19.2263V9.74178ZM18.823 19.2263C18.823 20.4735 17.812 21.4845 16.5648 21.4845H8.43522C7.18802 21.4845 6.177 20.4735 6.177 19.2263V8.8385C6.177 8.33963 6.58142 7.93521 7.08029 7.93521H17.9197C18.4186 7.93521 18.823 8.33963 18.823 8.8385V19.2263Z" fill="#B4C1C5"/>
</g>
</g>
<defs>
<clipPath id="clip0_36_3022">
<rect width="24" height="24" fill="white" transform="translate(0.5)"/>
</clipPath>
</defs>
</svg>
