<svg width="25" height="24" viewBox="0 0 25 24" fill="none" xmlns="http://www.w3.org/2000/svg">
<g id="Frame" clip-path="url(#clip0_75_6964)">
<path id="Icon (Stroke)" d="M4.5 15.5526V10.8158C4.5 8.63567 6.29086 6.86837 8.5 6.86837H9.76875L8.73438 5.8476C8.42196 5.53929 8.42196 5.03954 8.73438 4.73123C9.04679 4.42292 9.55321 4.42292 9.86562 4.73123L11.7 6.54148C12.3248 7.15808 12.3248 8.15761 11.7 8.77422L9.86562 10.5845C9.55321 10.8928 9.04679 10.8928 8.73438 10.5845C8.42196 10.2762 8.42196 9.7764 8.73438 9.46809L9.76875 8.44732H8.5C7.17452 8.44732 6.1 9.50771 6.1 10.8158V15.5526C6.1 16.8607 7.17452 17.921 8.5 17.921H16.5C17.8255 17.921 18.9 16.8607 18.9 15.5526V10.8158C18.9 9.50771 17.8255 8.44732 16.5 8.44732H15.65C15.2082 8.44732 14.85 8.09386 14.85 7.65785C14.85 7.22183 15.2082 6.86837 15.65 6.86837H16.5C18.7091 6.86837 20.5 8.63567 20.5 10.8158V15.5526C20.5 17.7327 18.7091 19.5 16.5 19.5H8.5C6.29086 19.5 4.5 17.7327 4.5 15.5526Z" fill="#848484"/>
</g>
<defs>
<clipPath id="clip0_75_6964">
<rect width="24" height="24" fill="white" transform="translate(0.5)"/>
</clipPath>
</defs>
</svg>
