<svg width="25" height="24" viewBox="0 0 25 24" fill="none" xmlns="http://www.w3.org/2000/svg">
<g id="Frame 50">
<g id="Group 2">
<path id="Vector (Stroke)" d="M18.4 6C18.4 5.77909 18.2209 5.6 18 5.6H6C5.77909 5.6 5.6 5.77909 5.6 6V18C5.6 18.2209 5.77909 18.4 6 18.4H18C18.2209 18.4 18.4 18.2209 18.4 18V6ZM20 18C20 19.1046 19.1046 20 18 20H6C4.89543 20 4 19.1046 4 18V6C4 4.89543 4.89543 4 6 4H18C19.1046 4 20 4.89543 20 6V18Z" fill="#464646"/>
<path id="Vector (Stroke)_2" d="M14.4 10V9.6H9.6V10C9.6 10.4418 9.24183 10.8 8.8 10.8C8.35817 10.8 8 10.4418 8 10V8.8C8 8.35817 8.35817 8 8.8 8H15.2C15.6418 8 16 8.35817 16 8.8V10C16 10.4418 15.6418 10.8 15.2 10.8C14.7582 10.8 14.4 10.4418 14.4 10Z" fill="#464646"/>
<path id="Vector (Stroke)_3" d="M12.7999 15.2C13.2417 15.2 13.5999 15.5582 13.5999 16C13.5999 16.4418 13.2417 16.8 12.7999 16.8H11.1999C10.7581 16.8 10.3999 16.4418 10.3999 16C10.3999 15.5582 10.7581 15.2 11.1999 15.2H12.7999Z" fill="#464646"/>
<path id="Vector (Stroke)_4" d="M11.2002 16V9.59999C11.2002 9.15816 11.5584 8.79999 12.0002 8.79999C12.442 8.79999 12.8002 9.15816 12.8002 9.59999V16C12.8002 16.4418 12.442 16.8 12.0002 16.8C11.5584 16.8 11.2002 16.4418 11.2002 16Z" fill="#464646"/>
</g>
</g>
</svg>
