<svg width="25" height="24" viewBox="0 0 25 24" fill="none" xmlns="http://www.w3.org/2000/svg">
<g id="Frame 50">
<path id="Icon (Stroke)" d="M18.6667 12C18.6667 8.3181 15.6819 5.33333 12 5.33333C8.3181 5.33333 5.33333 8.3181 5.33333 12C5.33333 15.6819 8.3181 18.6667 12 18.6667C15.6819 18.6667 18.6667 15.6819 18.6667 12ZM14.6667 12C14.6667 10.5272 13.4728 9.33333 12 9.33333C10.5272 9.33333 9.33333 10.5272 9.33333 12C9.33333 13.4728 10.5272 14.6667 12 14.6667C13.4728 14.6667 14.6667 13.4728 14.6667 12ZM16 12C16 14.2091 14.2091 16 12 16C9.79086 16 8 14.2091 8 12C8 9.79086 9.79086 8 12 8C14.2091 8 16 9.79086 16 12ZM20 12C20 16.4183 16.4183 20 12 20C7.58172 20 4 16.4183 4 12C4 7.58172 7.58172 4 12 4C16.4183 4 20 7.58172 20 12Z" fill="#464646"/>
</g>
</svg>
