<svg width="25" height="24" viewBox="0 0 25 24" fill="none" xmlns="http://www.w3.org/2000/svg">
<g id="Frame" clip-path="url(#clip0_75_6950)">
<path id="Icon (Stroke)" d="M5.23194 15.0528V14.9073C5.23194 14.5059 5.55735 14.1805 5.95876 14.1805C6.36018 14.1805 6.68559 14.5059 6.68559 14.9073V15.0528C6.68559 15.6753 6.68584 16.0984 6.71256 16.4255C6.73859 16.7442 6.78595 16.9074 6.84387 17.0211C6.98323 17.2945 7.20566 17.517 7.47913 17.6563C7.59281 17.7142 7.756 17.7616 8.07465 17.7876C8.40175 17.8144 8.82494 17.8146 9.44738 17.8146H15.553C16.1755 17.8146 16.5986 17.8144 16.9257 17.7876C17.2444 17.7616 17.4076 17.7142 17.5213 17.6563C17.7947 17.517 18.0172 17.2945 18.1565 17.0211C18.2144 16.9074 18.2618 16.7442 18.2878 16.4255C18.3146 16.0984 18.3148 15.6753 18.3148 15.0528V14.9073C18.3148 14.5059 18.6402 14.1805 19.0416 14.1805C19.443 14.1805 19.7685 14.5059 19.7685 14.9073V15.0528C19.7685 15.6513 19.7692 16.144 19.7365 16.5441C19.7031 16.9526 19.6316 17.3284 19.4519 17.6812C19.1732 18.2281 18.7283 18.673 18.1814 18.9517C17.8286 19.1314 17.4528 19.2029 17.0443 19.2363C16.6442 19.269 16.1515 19.2683 15.553 19.2683H9.44738C8.84885 19.2683 8.35614 19.269 7.95611 19.2363C7.5476 19.2029 7.17176 19.1314 6.81903 18.9517C6.27209 18.673 5.82722 18.2281 5.5485 17.6812C5.36878 17.3284 5.29726 16.9526 5.26388 16.5441C5.23119 16.144 5.23193 15.6513 5.23194 15.0528ZM11.7734 5.45856C11.7734 5.05715 12.0988 4.73174 12.5002 4.73174C12.9016 4.73174 13.227 5.05715 13.227 5.45856V13.1527L14.8936 11.4861C15.1775 11.2023 15.6375 11.2023 15.9214 11.4861C16.2052 11.77 16.2052 12.23 15.9214 12.5139L13.528 14.9073C12.9958 15.4395 12.1534 15.4731 11.5824 15.0074L11.4724 14.9073L9.079 12.5139C8.79516 12.23 8.79516 11.77 9.079 11.4861C9.36285 11.2023 9.82294 11.2023 10.1068 11.4861L11.7734 13.1527V5.45856Z" fill="#848484"/>
</g>
<defs>
<clipPath id="clip0_75_6950">
<rect width="24" height="24" fill="white" transform="translate(0.5)"/>
</clipPath>
</defs>
</svg>
