<svg width="25" height="24" viewBox="0 0 25 24" fill="none" xmlns="http://www.w3.org/2000/svg">
<g id="Frame" clip-path="url(#clip0_75_6957)">
<path id="Icon (Stroke)" d="M5 14.7413V14.5922C5.00016 14.1908 5.32559 13.8652 5.727 13.8652C6.12842 13.8652 6.45385 14.1908 6.454 14.5922V14.7413C6.454 15.3781 6.45482 15.8132 6.48169 16.1498C6.50792 16.4783 6.5558 16.6496 6.61587 16.7703C6.75758 17.0548 6.98193 17.2829 7.25413 17.4249C7.36635 17.4834 7.52745 17.5318 7.84481 17.5583C8.17114 17.5856 8.5936 17.586 9.21646 17.586H15.3235C15.9464 17.586 16.3689 17.5856 16.6952 17.5583C17.0126 17.5318 17.1736 17.4834 17.2859 17.4249C17.5581 17.2829 17.7824 17.0548 17.9241 16.7703C17.9842 16.6496 18.0321 16.4783 18.0583 16.1498C18.0852 15.8132 18.086 15.3781 18.086 14.7413V14.5922C18.0862 14.1908 18.4116 13.8652 18.813 13.8652C19.2144 13.8652 19.5398 14.1908 19.54 14.5922V14.7413C19.54 15.3547 19.5406 15.8576 19.5081 16.2655C19.4749 16.6812 19.4037 17.0611 19.2262 17.4178C18.9497 17.9732 18.5067 18.4281 17.9582 18.7141C17.6039 18.8989 17.2265 18.9731 16.8166 19.0073C16.4156 19.0409 15.9219 19.04 15.3235 19.04H9.21646C8.61806 19.04 8.12439 19.0409 7.72341 19.0073C7.31346 18.9731 6.93607 18.8989 6.58179 18.7141C6.03331 18.4281 5.59029 17.9732 5.3138 17.4178C5.13632 17.0611 5.06514 16.6812 5.03195 16.2655C4.99939 15.8576 5 15.3547 5 14.7413ZM11.543 14.5922V6.70324L9.88169 8.40357C9.60109 8.69057 9.1408 8.69616 8.85367 8.41563C8.56654 8.13505 8.56174 7.6748 8.84231 7.38763L11.2356 4.93689C11.8047 4.35437 12.7353 4.35437 13.3044 4.93689L15.6977 7.38763C15.9783 7.6748 15.9735 8.13505 15.6863 8.41563C15.3992 8.69616 14.9389 8.69057 14.6583 8.40357L12.997 6.70324V14.5922C12.997 14.9937 12.6715 15.3192 12.27 15.3192C11.8685 15.3192 11.543 14.9937 11.543 14.5922Z" fill="#848484"/>
</g>
<defs>
<clipPath id="clip0_75_6957">
<rect width="24" height="24" fill="white" transform="translate(0.5)"/>
</clipPath>
</defs>
</svg>
