<svg width="25" height="24" viewBox="0 0 25 24" fill="none" xmlns="http://www.w3.org/2000/svg">
<g id="Frame 50">
<path id="Icon (Stroke)" d="M18.5455 12C18.5455 8.38505 15.615 5.45455 12 5.45455C8.38505 5.45455 5.45455 8.38505 5.45455 12C5.45455 15.615 8.38505 18.5455 12 18.5455C15.615 18.5455 18.5455 15.615 18.5455 12ZM11.2727 14.9162V14.9091C11.2727 14.5074 11.5983 14.1818 12 14.1818C12.4017 14.1818 12.7273 14.5074 12.7273 14.9091V14.9162C12.7273 15.3179 12.4017 15.6435 12 15.6435C11.5983 15.6435 11.2727 15.3179 11.2727 14.9162ZM11.2727 12.7273V9.09091C11.2727 8.68925 11.5983 8.36364 12 8.36364C12.4017 8.36364 12.7273 8.68925 12.7273 9.09091V12.7273C12.7273 13.1289 12.4017 13.4545 12 13.4545C11.5983 13.4545 11.2727 13.1289 11.2727 12.7273ZM20 12C20 16.4183 16.4183 20 12 20C7.58172 20 4 16.4183 4 12C4 7.58172 7.58172 4 12 4C16.4183 4 20 7.58172 20 12Z" fill="#464646"/>
</g>
</svg>
