<svg width="24" height="24" viewBox="0 0 24 24" fill="none" xmlns="http://www.w3.org/2000/svg">
<g id="Frame" clip-path="url(#clip0_53_274)">
<g id="Group 17">
<path id="Vector (Stroke)" d="M19.0169 5.42169C19.5013 5.42169 19.894 5.81439 19.894 6.2988C19.894 6.78322 19.5013 7.17592 19.0169 7.17592H4.98307C4.49865 7.17592 4.10596 6.78322 4.10596 6.2988C4.10596 5.81439 4.49865 5.42169 4.98307 5.42169H19.0169Z" fill="#6E9EA6"/>
<path id="Vector (Stroke)_2" d="M14.631 2.79034C15.1154 2.79034 15.5081 3.18304 15.5081 3.66746C15.5081 4.15187 15.1154 4.54457 14.631 4.54457H9.36832C8.88391 4.54457 8.49121 4.15187 8.49121 3.66746C8.49121 3.18304 8.88391 2.79034 9.36832 2.79034H14.631Z" fill="#6E9EA6"/>
<path id="Vector (Stroke)_3" d="M16.3852 9.8072H7.61409V19.0169C7.61409 19.2591 7.81042 19.4554 8.05264 19.4554H15.9467C16.1889 19.4554 16.3852 19.2591 16.3852 19.0169V9.8072ZM18.1394 19.0169C18.1394 20.2279 17.1577 21.2097 15.9467 21.2097H8.05264C6.84158 21.2097 5.85986 20.2279 5.85986 19.0169V8.93009C5.85986 8.44567 6.25256 8.05298 6.73698 8.05298H17.2623C17.7467 8.05298 18.1394 8.44567 18.1394 8.93009V19.0169Z" fill="#6E9EA6"/>
</g>
</g>
<defs>
<clipPath id="clip0_53_274">
<rect width="24" height="24" fill="white"/>
</clipPath>
</defs>
</svg>
