<svg xmlns="http://www.w3.org/2000/svg" xmlns:xlink="http://www.w3.org/1999/xlink" fill="none" version="1.1" width="14" height="14.80897331237793" viewBox="0 0 14 14.80897331237793"><g transform="matrix(0,1,-1,0,14.80859375,-14.80859375)"><g><rect x="14.80859375" y="0" width="14" height="14.80897331237793" rx="0" fill="#D8D8D8" fill-opacity="0"/></g><g><path d="M18.4380828125,2.159701023750305C18.2742827125,1.9864310237503051,18.1923828125,1.757641023750305,18.1923828125,1.5310590237503052C18.1923828125,1.3044810237503053,18.2742827125,1.0756840237503051,18.4380828125,0.9024180237503052C18.7677828125,0.5558888237503051,19.2990828125,0.5558888237503051,19.6266828125,0.9024180237503052L25.1752128125,6.771471023750305L25.1790828125,6.775571023750305C25.3428928125,6.949961023750305,25.4247928125,7.177661023750305,25.4247828125,7.405081023750305C25.4247928125,7.632501023750305,25.3428928125,7.8596210237503055,25.1790828125,8.032851023750304L19.6266828125,13.906121023750305C19.2969828125,14.252621023750304,18.7656828125,14.252621023750304,18.4380828125,13.906121023750305C18.2742827125,13.732821023750304,18.1923828125,13.504021023750305,18.1923828125,13.277421023750305C18.1923828125,13.050921023750305,18.2742827125,12.822121023750306,18.4380828125,12.648821023750305L23.3961428125,7.404251023750305L18.4380828125,2.159701023750305Z" fill-rule="evenodd" fill="#FFFFFF" fill-opacity="1" style="mix-blend-mode:passthrough"/></g></g></svg>