<svg width="25" height="24" viewBox="0 0 25 24" fill="none" xmlns="http://www.w3.org/2000/svg">
<g id="Frame 50">
<g id="Group 2">
<path id="Vector (Stroke)" d="M18.4 6C18.4 5.77909 18.2209 5.6 18 5.6H6C5.77909 5.6 5.6 5.77909 5.6 6V18C5.6 18.2209 5.77909 18.4 6 18.4H18C18.2209 18.4 18.4 18.2209 18.4 18V6ZM20 18C20 19.1046 19.1046 20 18 20H6C4.89543 20 4 19.1046 4 18V6C4 4.89543 4.89543 4 6 4H18C19.1046 4 20 4.89543 20 6V18Z" fill="#464646"/>
<path id="Vector (Stroke)_2" d="M16.0002 11.2C16.442 11.2 16.8002 11.5582 16.8002 12C16.8002 12.4418 16.442 12.8 16.0002 12.8H8.0002C7.55837 12.8 7.2002 12.4418 7.2002 12C7.2002 11.5582 7.55837 11.2 8.0002 11.2H16.0002Z" fill="#464646"/>
<path id="Vector (Stroke)_3" d="M16.0002 7.59998C16.442 7.59998 16.8002 7.95815 16.8002 8.39998C16.8002 8.8418 16.442 9.19998 16.0002 9.19998H8.0002C7.55837 9.19998 7.2002 8.8418 7.2002 8.39998C7.2002 7.95815 7.55837 7.59998 8.0002 7.59998H16.0002Z" fill="#464646"/>
<path id="Vector (Stroke)_4" d="M16.0002 14.8C16.442 14.8 16.8002 15.1582 16.8002 15.6C16.8002 16.0418 16.442 16.4 16.0002 16.4H8.0002C7.55837 16.4 7.2002 16.0418 7.2002 15.6C7.2002 15.1582 7.55837 14.8 8.0002 14.8H16.0002Z" fill="#464646"/>
</g>
</g>
</svg>
