<svg width="25" height="24" viewBox="0 0 25 24" fill="none" xmlns="http://www.w3.org/2000/svg">
<g id="Frame 50">
<path id="Icon (Stroke)" d="M4.04053 14.0797V9.92031C4.04053 9.03745 4.03975 8.32686 4.08662 7.75313C4.13425 7.17016 4.23514 6.65813 4.47646 6.18438C4.85994 5.43173 5.47223 4.81943 6.22486 4.43594C6.6986 4.19461 7.21062 4.09372 7.79358 4.04609C8.3673 3.99922 9.07787 4 9.96072 4H15.2403C15.6821 4 16.0403 4.35817 16.0403 4.8C16.0403 5.24183 15.6821 5.6 15.2403 5.6H9.96072C9.05159 5.6 8.41747 5.60033 7.92404 5.64063C7.43992 5.68018 7.16131 5.75437 6.95063 5.86172C6.49926 6.09178 6.13226 6.45878 5.90221 6.91016C5.79486 7.12084 5.72067 7.39946 5.68112 7.88359C5.64082 8.37703 5.6405 9.01117 5.6405 9.92031V14.0797C5.6405 14.9888 5.64082 15.623 5.68112 16.1164C5.72067 16.6005 5.79486 16.8792 5.90221 17.0898C6.13226 17.5412 6.49926 17.9082 6.95063 18.1383C7.16131 18.2456 7.43992 18.3198 7.92404 18.3594C8.41747 18.3997 9.05159 18.4 9.96072 18.4H14.12C15.0291 18.4 15.6633 18.3997 16.1567 18.3594C16.6408 18.3198 16.9194 18.2456 17.1301 18.1383C17.5815 17.9082 17.9485 17.5412 18.1785 17.0898C18.2859 16.8792 18.3601 16.6005 18.3996 16.1164C18.4399 15.623 18.4402 14.9888 18.4402 14.0797V12C18.4402 11.5582 18.7984 11.2 19.2402 11.2C19.682 11.2 20.0402 11.5582 20.0402 12V14.0797C20.0402 14.9626 20.041 15.6731 19.9941 16.2469C19.9465 16.8298 19.8456 17.3419 19.6043 17.8156C19.2208 18.5683 18.6085 19.1806 17.8559 19.5641C17.3821 19.8054 16.8701 19.9063 16.2872 19.9539C15.7134 20.0008 15.0029 20 14.12 20H9.96072C9.07787 20 8.3673 20.0008 7.79358 19.9539C7.21063 19.9063 6.6986 19.8054 6.22486 19.5641C5.47223 19.1806 4.85994 18.5683 4.47646 17.8156C4.23514 17.3419 4.13425 16.8298 4.08662 16.2469C4.03975 15.6731 4.04053 14.9626 4.04053 14.0797ZM18.6723 5.83594C18.9836 5.52245 19.4908 5.52071 19.8043 5.83203C20.1178 6.14336 20.1195 6.65056 19.8082 6.96406L12.9419 13.8781C12.4726 14.3506 11.7081 14.3506 11.2388 13.8781L8.27247 10.8906C7.96151 10.5771 7.96305 10.0706 8.27638 9.75938C8.58988 9.44805 9.09706 9.44978 9.40839 9.76328L12.0904 12.4648L18.6723 5.83594Z" fill="#464646"/>
</g>
</svg>
