<svg width="24" height="24" viewBox="0 0 24 24" fill="none" xmlns="http://www.w3.org/2000/svg">
<g id="Frame" clip-path="url(#clip0_27_1388)">
<g id="Group 11">
<path id="Vector (Stroke)" d="M10.451 4.255C10.8787 4.255 11.2255 4.60176 11.2255 5.0295V10.451C11.2255 10.8787 10.8787 11.2255 10.451 11.2255H5.0295C4.60176 11.2255 4.255 10.8787 4.255 10.451V5.0295C4.255 4.60176 4.60176 4.255 5.0295 4.255H10.451ZM5.804 9.67651H9.67651V5.804H5.804V9.67651Z" fill="#848484"/>
<path id="Vector (Stroke)_2" d="M10.451 12.7745C10.8787 12.7745 11.2255 13.1213 11.2255 13.549V18.9705C11.2255 19.3983 10.8787 19.745 10.451 19.745H5.0295C4.60176 19.745 4.255 19.3983 4.255 18.9705V13.549C4.255 13.1213 4.60176 12.7745 5.0295 12.7745H10.451ZM5.804 18.196H9.67651V14.3235H5.804V18.196Z" fill="#848484"/>
<path id="Vector (Stroke)_3" d="M18.9705 4.255C19.3982 4.255 19.745 4.60176 19.745 5.0295V10.451C19.745 10.8787 19.3982 11.2255 18.9705 11.2255H13.549C13.1212 11.2255 12.7745 10.8787 12.7745 10.451V5.0295C12.7745 4.60176 13.1212 4.255 13.549 4.255H18.9705ZM14.3235 9.67651H18.196V5.804H14.3235V9.67651Z" fill="#848484"/>
<path id="Vector (Stroke)_4" d="M13.1617 18.9705V13.549C13.1617 13.1213 13.5085 12.7745 13.9362 12.7745C14.364 12.7745 14.7107 13.1213 14.7107 13.549V18.9705C14.7107 19.3983 14.364 19.745 13.9362 19.745C13.5085 19.745 13.1617 19.3983 13.1617 18.9705Z" fill="#848484"/>
<path id="Vector (Stroke)_5" d="M17.8088 18.9705V13.549C17.8088 13.1213 18.1555 12.7745 18.5833 12.7745C19.011 12.7745 19.3578 13.1213 19.3578 13.549V18.9705C19.3578 19.3983 19.011 19.745 18.5833 19.745C18.1555 19.745 17.8088 19.3983 17.8088 18.9705Z" fill="#848484"/>
</g>
</g>
<defs>
<clipPath id="clip0_27_1388">
<rect width="24" height="24" fill="white"/>
</clipPath>
</defs>
</svg>
