<svg width="25" height="24" viewBox="0 0 25 24" fill="none" xmlns="http://www.w3.org/2000/svg">
<g id="Frame" clip-path="url(#clip0_36_3041)">
<g id="Group 20">
<path id="Vector (Stroke)" d="M12.4999 5.96408C15.1812 5.96408 17.5312 7.41019 19.1471 8.74962C19.9673 9.42947 20.6295 10.1069 21.0864 10.6148C21.3153 10.8692 21.4939 11.0831 21.6169 11.2346C21.6783 11.3102 21.7262 11.3706 21.7592 11.4131C21.7757 11.4342 21.7888 11.4508 21.798 11.4628C21.8023 11.4685 21.8054 11.4735 21.8081 11.4771C21.8094 11.4789 21.8106 11.481 21.8114 11.4821L21.8131 11.483V11.4838L21.1226 12L21.8131 12.5162V12.517L21.8114 12.5179C21.8106 12.519 21.8094 12.5211 21.8081 12.5229C21.8054 12.5264 21.8023 12.5315 21.798 12.5372C21.7888 12.5492 21.7757 12.5657 21.7592 12.5869C21.7262 12.6294 21.6783 12.6898 21.6169 12.7654C21.4939 12.9169 21.3153 13.1307 21.0864 13.3852C20.6295 13.8931 19.9673 14.5705 19.1471 15.2503C17.5312 16.5898 15.1812 18.0359 12.4999 18.0359C9.81861 18.0359 7.46858 16.5898 5.85265 15.2503C5.03246 14.5705 4.37026 13.8931 3.91338 13.3852C3.68448 13.1307 3.50585 12.9169 3.38288 12.7654C3.32146 12.6898 3.27356 12.6294 3.24057 12.5869C3.22413 12.5657 3.21094 12.5492 3.20183 12.5372C3.19744 12.5315 3.19438 12.5264 3.19173 12.5229C3.19038 12.5211 3.18923 12.519 3.18836 12.5179L3.18668 12.517V12.5162L3.87717 12L3.18668 11.4838V11.483L3.18836 11.4821C3.18923 11.481 3.19038 11.4789 3.19173 11.4771C3.19438 11.4735 3.19744 11.4685 3.20183 11.4628C3.21094 11.4508 3.22413 11.4342 3.24057 11.4131C3.27356 11.3706 3.32146 11.3102 3.38288 11.2346C3.50585 11.0831 3.68448 10.8692 3.91338 10.6148C4.37026 10.1069 5.03246 9.42947 5.85265 8.74962C7.46858 7.41019 9.81861 5.96408 12.4999 5.96408ZM12.4999 7.68863C10.4191 7.68863 8.45807 8.82943 6.95322 10.0767C6.21301 10.6903 5.61161 11.3062 5.19584 11.7684C5.12179 11.8507 5.05459 11.9287 4.9929 12C5.05459 12.0713 5.12179 12.1492 5.19584 12.2316C5.61161 12.6937 6.21301 13.3097 6.95322 13.9233C8.45807 15.1705 10.4191 16.3113 12.4999 16.3113C14.5807 16.3113 16.5417 15.1705 18.0466 13.9233C18.7868 13.3097 19.3882 12.6937 19.8039 12.2316C19.8778 12.1494 19.9444 12.0712 20.006 12C19.9444 11.9288 19.8778 11.8506 19.8039 11.7684C19.3882 11.3062 18.7868 10.6903 18.0466 10.0767C16.5417 8.82943 14.5807 7.68863 12.4999 7.68863ZM3.87717 12L3.18583 12.5153C2.95791 12.2096 2.95791 11.7904 3.18583 11.4846L3.87717 12ZM21.8139 11.4846C22.0419 11.7904 22.0419 12.2096 21.8139 12.5153L21.1226 12L21.8139 11.4846Z" fill="#B4C1C5"/>
<path id="Vector (Stroke)_2" d="M13.7933 12C13.7933 11.2857 13.2142 10.7066 12.4999 10.7066C11.7856 10.7066 11.2065 11.2857 11.2065 12C11.2065 12.7143 11.7856 13.2934 12.4999 13.2934C13.2142 13.2934 13.7933 12.7143 13.7933 12ZM15.5178 12C15.5178 13.6667 14.1666 15.0179 12.4999 15.0179C10.8331 15.0179 9.48193 13.6667 9.48193 12C9.48193 10.3332 10.8331 8.98203 12.4999 8.98203C14.1666 8.98203 15.5178 10.3332 15.5178 12Z" fill="#B4C1C5"/>
</g>
</g>
<defs>
<clipPath id="clip0_36_3041">
<rect width="24" height="24" fill="white" transform="translate(0.5)"/>
</clipPath>
</defs>
</svg>
