<svg width="24" height="24" viewBox="0 0 24 24" fill="none" xmlns="http://www.w3.org/2000/svg">
<g id="Frame" clip-path="url(#clip0_75_6971)">
<g id="Group 22">
<path id="Vector (Stroke)" d="M12.0039 2.72866C11.492 2.72878 11.0768 3.14383 11.0768 3.65579C11.0768 4.16776 11.492 4.5828 12.0039 4.58292H19.4172V19.417H12.0003C11.4882 19.417 11.0732 19.8321 11.0732 20.3441C11.0732 20.8562 11.4882 21.2713 12.0003 21.2713H20.3444C20.8564 21.2713 21.2715 20.8562 21.2715 20.3441V3.65579C21.2715 3.14375 20.8564 2.72866 20.3444 2.72866H12.0039Z" fill="#505050"/>
<path id="Vector (Stroke)_2" d="M8.48334 7.17263C8.12127 6.81056 7.53439 6.81056 7.17233 7.17263L3.00029 11.3447C2.63822 11.7068 2.63822 12.2937 3.00029 12.6557L7.17233 16.8278C7.53439 17.1899 8.12127 17.1899 8.48334 16.8278C8.8454 16.4658 8.8454 15.8789 8.48334 15.5168L4.9668 12.0002L8.48334 8.48365C8.8454 8.12158 8.8454 7.53469 8.48334 7.17263Z" fill="#505050"/>
<path id="Vector (Stroke)_3" d="M3.65606 11.0692C3.14402 11.0692 2.72894 11.4843 2.72894 11.9964C2.72894 12.5084 3.14402 12.9235 3.65606 12.9235H15.7086C16.2207 12.9235 16.6357 12.5084 16.6357 11.9964C16.6357 11.4843 16.2207 11.0692 15.7086 11.0692H3.65606Z" fill="#505050"/>
</g>
</g>
<defs>
<clipPath id="clip0_75_6971">
<rect width="24" height="24" fill="white" transform="matrix(-1 0 0 1 24 0)"/>
</clipPath>
</defs>
</svg>
