<svg width="205" height="64" viewBox="0 0 205 64" fill="none" xmlns="http://www.w3.org/2000/svg">
<g id="div-section" clip-path="url(#clip0_79_3589)">
<g id="Group">
<path id="main-div" d="M-39.4996 -14.9998C-39.4996 -28.2546 -28.7545 -38.9998 -15.4996 -38.9998H396.5C409.755 -38.9998 420.5 -28.2546 420.5 -14.9998V729H-39.4996V-14.9998Z" fill="#FAFAFA"/>
</g>
<g id="Frame 121">
<g id="header">
<path id="LET&#39;S GET YOU STARTED" d="M3.06061 17.5002L0.87181 8.54024H1.67821L3.47021 16.0666L5.58221 8.54024H6.22221L8.33421 16.0666L10.1134 8.54024H10.9326L8.73101 17.5002H8.02701L5.88941 9.98664L3.77741 17.5002H3.06061ZM12.3758 17.5002V8.54024H17.9438V9.28264H13.1566V12.5338H17.5214V13.3018H13.1566V16.745H18.0974V17.5002H12.3758ZM19.7883 17.5002V8.54024H20.5691V16.745H25.5227V17.5002H19.7883ZM30.5857 17.6666C29.775 17.6666 29.0625 17.4746 28.4481 17.0906C27.8337 16.7066 27.3516 16.1648 27.0017 15.465C26.6604 14.7653 26.4897 13.9461 26.4897 13.0074C26.4897 12.0688 26.6604 11.2538 27.0017 10.5626C27.3516 9.86291 27.8337 9.32104 28.4481 8.93704C29.0625 8.54451 29.775 8.34824 30.5857 8.34824C31.294 8.34824 31.9254 8.50184 32.4801 8.80904C33.0433 9.10771 33.5084 9.53438 33.8753 10.089L33.1841 10.4986C32.894 10.0634 32.527 9.72638 32.0833 9.48744C31.6396 9.24851 31.1404 9.12904 30.5857 9.12904C29.9457 9.12904 29.3782 9.28691 28.8833 9.60264C28.3884 9.90984 28.0001 10.3536 27.7185 10.9338C27.4369 11.5141 27.2961 12.2053 27.2961 13.0074C27.2961 13.8096 27.4369 14.505 27.7185 15.0938C28.0001 15.6741 28.3884 16.1221 28.8833 16.4378C29.3782 16.745 29.9457 16.8986 30.5857 16.8986C31.1404 16.8986 31.6396 16.7792 32.0833 16.5402C32.527 16.3013 32.894 15.9642 33.1841 15.529L33.8753 15.9514C33.5084 16.489 33.0433 16.9114 32.4801 17.2186C31.9254 17.5173 31.294 17.6666 30.5857 17.6666ZM39.1732 17.6666C38.3625 17.6666 37.65 17.4746 37.0356 17.0906C36.4212 16.7066 35.9391 16.1648 35.5892 15.465C35.2479 14.7653 35.0772 13.9461 35.0772 13.0074C35.0772 12.0688 35.2479 11.2538 35.5892 10.5626C35.9391 9.86291 36.4212 9.32104 37.0356 8.93704C37.65 8.54451 38.3625 8.34824 39.1732 8.34824C39.9753 8.34824 40.6836 8.54451 41.298 8.93704C41.9124 9.32104 42.3903 9.86291 42.7316 10.5626C43.0815 11.2538 43.2564 12.0688 43.2564 13.0074C43.2564 13.9461 43.0815 14.7653 42.7316 15.465C42.3903 16.1648 41.9124 16.7066 41.298 17.0906C40.6836 17.4746 39.9753 17.6666 39.1732 17.6666ZM39.1732 16.8986C39.8132 16.8986 40.3764 16.745 40.8628 16.4378C41.3577 16.1221 41.7417 15.6741 42.0148 15.0938C42.2964 14.505 42.4372 13.8096 42.4372 13.0074C42.4372 12.2053 42.2964 11.5141 42.0148 10.9338C41.7417 10.3536 41.3577 9.90984 40.8628 9.60264C40.3764 9.28691 39.8132 9.12904 39.1732 9.12904C38.5332 9.12904 37.9657 9.28691 37.4708 9.60264C36.9759 9.90984 36.5876 10.3536 36.306 10.9338C36.0244 11.5141 35.8836 12.2053 35.8836 13.0074C35.8836 13.8096 36.0244 14.505 36.306 15.0938C36.5876 15.6741 36.9759 16.1221 37.4708 16.4378C37.9657 16.745 38.5332 16.8986 39.1732 16.8986ZM44.9258 17.5002V8.54024H45.7066L48.7914 13.161L51.8378 8.54024H52.6442V17.5002H51.8378V9.90984L49.009 14.2234H48.5738L45.7194 9.90984V17.5002H44.9258ZM54.8008 17.5002V8.54024H60.3688V9.28264H55.5816V12.5338H59.9464V13.3018H55.5816V16.745H60.5224V17.5002H54.8008ZM65.8008 17.5002V8.54024H69.0776C69.9395 8.54024 70.5795 8.74078 70.9976 9.14184C71.4157 9.53438 71.6248 10.089 71.6248 10.8058C71.6248 11.2837 71.5096 11.6933 71.2792 12.0346C71.0488 12.376 70.7459 12.6234 70.3704 12.777C70.8824 12.9306 71.292 13.2208 71.5992 13.6474C71.9149 14.0656 72.0728 14.552 72.0728 15.1066C72.0728 15.8832 71.8467 16.4762 71.3944 16.8858C70.9421 17.2954 70.2381 17.5002 69.2824 17.5002H65.8008ZM66.5816 16.745H69.2184C69.9267 16.745 70.4387 16.6042 70.7544 16.3226C71.0787 16.041 71.2408 15.6144 71.2408 15.0426C71.2408 14.488 71.0488 14.0442 70.6648 13.7114C70.2808 13.3786 69.7859 13.2122 69.18 13.2122H66.5816V16.745ZM66.5816 12.457H69.116C69.6536 12.457 70.0675 12.312 70.3576 12.0218C70.6477 11.7232 70.7928 11.3434 70.7928 10.8826C70.7928 10.328 70.6477 9.92264 70.3576 9.66664C70.0675 9.41064 69.6067 9.28264 68.9752 9.28264H66.5816V12.457ZM73.0313 17.5002L76.6281 8.54024H77.3193L80.9033 17.5002H80.0329L78.9705 14.7994H74.9641L73.9017 17.5002H73.0313ZM75.2329 14.0442H78.6889L76.9737 9.65384L75.2329 14.0442ZM85.4607 17.6666C84.65 17.6666 83.9375 17.4746 83.3231 17.0906C82.7087 16.7066 82.2266 16.1648 81.8767 15.465C81.5354 14.7653 81.3647 13.9461 81.3647 13.0074C81.3647 12.0688 81.5354 11.2538 81.8767 10.5626C82.2266 9.86291 82.7087 9.32104 83.3231 8.93704C83.9375 8.54451 84.65 8.34824 85.4607 8.34824C86.169 8.34824 86.8004 8.50184 87.3551 8.80904C87.9183 9.10771 88.3834 9.53438 88.7503 10.089L88.0591 10.4986C87.769 10.0634 87.402 9.72638 86.9583 9.48744C86.5146 9.24851 86.0154 9.12904 85.4607 9.12904C84.8207 9.12904 84.2532 9.28691 83.7583 9.60264C83.2634 9.90984 82.8751 10.3536 82.5935 10.9338C82.3119 11.5141 82.1711 12.2053 82.1711 13.0074C82.1711 13.8096 82.3119 14.505 82.5935 15.0938C82.8751 15.6741 83.2634 16.1221 83.7583 16.4378C84.2532 16.745 84.8207 16.8986 85.4607 16.8986C86.0154 16.8986 86.5146 16.7792 86.9583 16.5402C87.402 16.3013 87.769 15.9642 88.0591 15.529L88.7503 15.9514C88.3834 16.489 87.9183 16.9114 87.3551 17.2186C86.8004 17.5173 86.169 17.6666 85.4607 17.6666ZM90.4258 17.5002V8.54024H91.2066V12.4698L95.5074 8.54024H96.5826L91.9362 12.7386L96.8514 17.5002H95.7762L91.2066 12.9818V17.5002H90.4258Z" fill="black"/>
<path id="Create an Account" d="M15.9006 37.4252H23.5756V39.6002H6.92561V43.6252C6.92561 45.7502 6.82561 47.5252 6.60061 48.9502C6.37561 50.3752 6.02561 51.7002 5.55061 52.9002C5.07561 54.0752 4.37561 55.4502 3.47561 56.9752L1.32561 55.8252C4.02561 51.5252 4.55061 49.6252 4.62561 43.8502V37.4252H13.4506C13.0756 36.1002 12.7756 35.1752 12.5756 34.7002L14.8756 34.3002C15.2506 35.2502 15.5756 36.3002 15.9006 37.4252ZM48.46 45.9752V48.0002H45.86L45.76 51.4252H47.71V53.5252H45.685V53.8002C45.585 56.2252 44.785 56.7752 41.935 56.9252L39.785 57.0502L39.06 54.8752L41.335 54.7502C42.91 54.6502 43.335 54.4252 43.435 53.5252H32.635L33.21 48.0002H31.535V45.9752H33.435L33.885 41.7502C33.36 42.3752 33.135 42.6502 33.16 42.6252L31.635 41.0252C32.535 40.0502 33.385 38.9502 34.185 37.6752C34.985 36.4002 35.61 35.1752 36.085 34.0002L38.11 34.6502C37.885 35.2502 37.585 35.8752 37.21 36.5502H47.56V38.5752H36.085C35.71 39.2002 35.26 39.8752 34.785 40.5502H46.11L46.06 41.8002L45.935 45.9752H48.46ZM32.71 38.1002L31.56 40.0502C31.06 39.5252 30.36 38.9252 29.46 38.2002C28.585 37.4752 27.835 36.9002 27.21 36.5002L28.46 34.8502C29.085 35.2252 29.81 35.7502 30.635 36.4002C31.46 37.0252 32.16 37.6002 32.71 38.1002ZM31.66 43.6502L30.485 45.6502C29.985 45.1252 29.285 44.5002 28.36 43.7752C27.435 43.0252 26.685 42.4502 26.06 42.0502L27.31 40.3502C27.96 40.7502 28.735 41.2752 29.61 41.9502C30.51 42.6252 31.185 43.1752 31.66 43.6502ZM38.46 42.5752H36.01L35.635 45.9752H40.51C39.46 45.0002 38.51 44.2502 37.66 43.7002L38.46 42.5752ZM40.96 45.9752H43.835L43.91 44.3252L43.985 42.5752H39.46C40.51 43.3002 41.31 43.9252 41.885 44.4502L40.96 45.9752ZM29.46 47.4502L31.435 48.2002C31.235 49.0502 30.785 50.5252 30.06 52.6502C29.335 54.7752 28.81 56.1752 28.485 56.9002L26.335 56.1252C26.685 55.4252 27.235 54.0252 27.985 51.9252C28.76 49.8002 29.235 48.3252 29.46 47.4502ZM38.11 48.0002H35.385L35.01 51.4252H40.085C39.685 51.0502 39.21 50.6502 38.635 50.2002C38.06 49.7502 37.61 49.4002 37.235 49.1752L38.11 48.0002ZM40.585 51.4252H43.56L43.61 50.4502C43.685 49.5002 43.71 48.6752 43.735 48.0002H38.96C39.86 48.6002 40.96 49.4502 41.535 49.9752L40.585 51.4252ZM52.4944 35.9752L53.9444 34.3002C54.4694 34.6752 55.1444 35.2752 55.9694 36.0502C56.7944 36.8252 57.4694 37.5002 57.9694 38.0502L56.2944 39.9502C55.9194 39.4252 55.3444 38.7502 54.5444 37.9252C53.7444 37.1002 53.0694 36.4502 52.4944 35.9752ZM58.6944 38.2752V35.9502H71.6694V53.3252C71.5944 56.1502 71.0944 56.5502 68.1444 56.8252L66.2194 56.9502L65.4694 54.5752L67.3444 54.4752C69.0194 54.3752 69.3194 54.0502 69.3194 52.6252V38.2752H58.6944ZM54.6444 56.7752H52.2944V39.4502L54.6444 39.5252V56.7752ZM66.5944 51.6252H57.3444V41.6002H66.5944V51.6252ZM64.3444 49.4752V43.6752H59.5944V49.4752H64.3444ZM86.1787 51.1502L88.0537 51.0002C89.4037 50.9002 89.5787 50.7252 89.6287 49.9002L89.7037 49.0752H82.4287V53.1752C82.4287 54.4502 82.7787 54.7252 84.0037 54.8002C85.2037 54.8502 86.4037 54.8752 87.6287 54.8752C88.7037 54.8752 89.7787 54.8502 90.8537 54.8002C92.3537 54.7002 92.5787 54.5502 92.8287 53.5502C92.9287 52.9502 93.0037 52.3502 93.0537 51.7752L95.2787 52.5502C95.2037 53.3002 95.0787 53.9502 94.9537 54.5002C94.5037 56.2252 93.9537 56.7252 91.5037 56.8252C90.1287 56.8752 88.7537 56.9002 87.3787 56.9002C86.0037 56.9002 84.6287 56.8752 83.2537 56.8252C80.9037 56.7252 80.1287 56.0502 80.1287 53.6752V49.6002C79.0287 50.4752 77.7787 51.3252 76.4037 52.2002L75.1537 50.1502C77.9037 48.5752 80.0537 46.8752 81.6287 45.0502H76.0037V43.1252H83.0537C83.5287 42.3502 83.8787 41.6502 84.1537 40.9752H76.9537V39.0002H81.1537C80.3537 37.8252 79.5787 36.8502 78.8537 36.0252L80.4537 34.9252C80.8287 35.3252 81.2787 35.8502 81.8037 36.5252C82.3287 37.2002 82.7537 37.7502 83.0287 38.1752L82.1537 39.0002H84.8287C85.2037 37.6752 85.5037 36.2002 85.7287 34.5752L88.0287 34.7502C87.8287 36.1752 87.5537 37.5752 87.1787 39.0002H89.6537L89.5287 38.9252C90.0287 38.3502 90.5787 37.6502 91.1787 36.8252C91.7787 36.0002 92.2037 35.3502 92.4787 34.9002L94.1037 35.9752C93.5537 36.8502 92.8287 37.8752 91.9537 39.0002H96.1537V40.9752H86.5537C86.2537 41.8002 85.9537 42.5252 85.6287 43.1252H97.1287V45.0502H91.5037C92.9787 46.6752 95.1037 48.0002 97.8787 49.0752L96.8787 51.2752C94.9037 50.3252 93.2537 49.3002 91.9287 48.2252L91.8037 50.4252C91.7037 52.3502 91.0537 52.8002 88.6787 53.0002L86.8037 53.1252L86.1787 51.1502ZM82.7787 47.2002H90.7787C90.0787 46.5252 89.4537 45.8002 88.9287 45.0502H84.5037C84.0287 45.7252 83.4537 46.4502 82.7787 47.2002ZM114.938 36.3252H121.813V38.2502H117.763C118.163 38.7752 118.538 39.3252 118.888 39.8502L117.188 41.0002C116.788 40.3252 115.988 39.0752 115.388 38.2502H113.963C113.538 39.0252 113.188 39.6002 112.913 39.9752L111.888 39.4752L112.488 41.1502H121.113V44.9252H118.788V42.9502H103.588V44.5002H118.713V49.4502H105.663V51.0002H119.263V57.0502H116.963V56.1002H105.663V57.1502H103.388V44.9252H101.263V41.1502H102.063L100.363 39.9002C101.988 38.2002 103.438 36.1002 104.263 34.1752L106.513 34.6002C106.288 35.1252 106.013 35.7002 105.638 36.3252H111.538V38.0752C112.288 36.9502 112.938 35.6502 113.488 34.2252L115.713 34.5502C115.463 35.1752 115.213 35.7752 114.938 36.3252ZM102.188 41.1502H110.263L109.788 39.7502L111.763 39.4252L110.888 39.0002C111.088 38.7502 111.263 38.5002 111.413 38.2502H107.563L108.663 39.8752L106.938 40.9752C106.563 40.3002 106.013 39.3752 105.238 38.2502H104.438C103.663 39.4002 102.913 40.3752 102.188 41.1502ZM105.663 47.7252H116.463V46.2252H105.663V47.7252ZM105.663 54.4752H116.963V52.7502H105.663V54.4752ZM145.797 51.7002H140.447V54.1002H146.947V56.1752H131.697V54.1002H138.297V51.7002H133.122V49.6002H138.297V47.2502H133.372V35.6502H145.422V47.2502H140.447V49.6002H145.797V51.7002ZM132.497 51.2252L132.622 52.5002L132.697 53.4002C131.547 53.6502 128.922 54.2502 124.822 55.2252L124.522 53.1002C125.172 53.0002 126.272 52.7752 127.847 52.4002V46.0002H125.272V43.8752H127.847V38.5252H125.047V36.4252H132.547V38.5252H129.997V43.8752H132.397V46.0002H129.997V51.8752L132.497 51.2252ZM135.522 40.4502H138.297V37.7252H135.522V40.4502ZM140.447 37.7252V40.4502H143.297V37.7252H140.447ZM138.297 42.4752H135.522V45.2002H138.297V42.4752ZM143.297 42.4752H140.447V45.2002H143.297V42.4752ZM164.232 48.8752C163.707 48.9002 162.932 48.9502 161.857 48.9752V54.0002C161.782 56.2002 161.382 56.5002 158.632 56.7502L156.982 56.8752L156.307 54.6502L157.982 54.5252C159.382 54.4252 159.607 54.3002 159.607 53.3252V49.0752L153.582 49.3752C152.957 49.4002 152.232 49.4752 151.457 49.5752L151.032 47.2252C151.657 47.1502 152.332 47.0502 153.057 46.8752C154.832 46.2752 156.882 45.2252 159.157 43.7002C156.632 43.7752 154.832 43.8252 153.807 43.8752C153.282 43.8752 152.607 43.9252 151.807 44.0002L151.407 41.9752C152.307 41.8502 152.957 41.6752 153.357 41.4502C154.732 40.7002 156.207 39.6252 157.782 38.2002L156.407 38.2752L151.132 38.5002L150.857 36.2752C153.407 36.2252 156.582 36.0752 160.357 35.8502C164.157 35.6252 167.207 35.3752 169.532 35.1002L169.882 37.3252C167.607 37.5502 164.057 37.8252 159.182 38.1002L160.282 38.5752C159.282 39.5002 158.507 40.2002 157.932 40.6752C157.357 41.1252 156.807 41.5002 156.257 41.8252L162.007 41.6252C163.257 40.6502 164.532 39.5502 165.832 38.3002L167.307 40.0502C165.832 41.4002 164.232 42.7002 162.457 43.9752C160.682 45.2502 159.057 46.2502 157.557 47.0252C159.282 46.9752 162.082 46.8502 166.007 46.6252C165.257 45.8502 164.632 45.2002 164.107 44.7252L165.707 43.3502C166.432 43.9752 167.307 44.8502 168.332 45.9252C169.357 47.0002 170.207 47.9752 170.857 48.8252L169.307 50.4502C169.007 50.0502 168.557 49.4752 167.932 48.7502C167.182 48.7752 165.957 48.8002 164.232 48.8752ZM155.907 49.8002L157.257 51.6002C156.382 52.3752 155.307 53.1752 154.032 54.0502C152.757 54.9002 151.532 55.6752 150.332 56.3752L149.157 54.5002C150.307 53.8752 151.507 53.1252 152.782 52.2502C154.057 51.3752 155.107 50.5752 155.907 49.8002ZM163.407 51.7502L164.532 49.8752C165.482 50.4002 166.657 51.1002 168.082 51.9752C169.507 52.8502 170.682 53.6002 171.607 54.2252L170.507 56.3252C169.732 55.7002 168.607 54.9252 167.157 54.0002C165.707 53.0752 164.457 52.3252 163.407 51.7502ZM194.216 51.0752L196.116 51.7252C196.066 52.9002 195.991 53.8002 195.866 54.4502C195.616 55.9752 195.141 56.3752 193.116 56.5752C193.016 56.6002 192.766 56.6002 192.366 56.6002C191.966 56.6002 191.716 56.6002 191.591 56.5752C189.716 56.4252 188.991 56.0002 188.991 53.8752V46.1502L186.791 46.2752V47.7252C186.566 52.7502 185.616 54.7002 181.291 57.5252L179.966 55.7002C181.291 54.9252 182.291 54.2252 182.916 53.5752C183.541 52.9002 183.991 52.1502 184.216 51.2752C184.441 50.4002 184.591 49.1502 184.641 47.5252L184.666 46.3752C184.366 46.4002 184.166 46.4252 184.091 46.4252C183.691 46.4252 183.041 46.5002 182.141 46.6502L181.541 44.6502C181.966 44.5252 182.341 44.3002 182.616 44.0252C182.991 43.6502 183.491 43.0252 184.141 42.1502C184.791 41.2502 185.416 40.3252 186.041 39.3752H181.966V37.2252H187.466C187.041 35.9002 186.741 35.0002 186.541 34.5252L188.766 34.2002C189.066 34.8502 189.416 35.8502 189.816 37.2252H195.391V39.3752H188.466C187.816 40.4002 187.166 41.3752 186.516 42.3002C185.891 43.2252 185.366 43.8752 184.966 44.3002C187.541 44.1752 189.766 44.1002 191.591 44.0252C191.091 43.2502 190.466 42.4002 189.716 41.4252L191.341 40.3252C191.916 41.0002 192.616 41.9252 193.441 43.1002C194.266 44.2752 194.941 45.2752 195.416 46.1252L193.766 47.5002C193.591 47.1502 193.291 46.6502 192.866 45.9752L191.091 46.0502V53.4752C191.091 54.4252 191.166 54.4502 191.991 54.5502C192.291 54.5752 192.591 54.5752 192.866 54.5502C193.766 54.4502 193.916 54.3752 194.041 53.5002C194.166 52.8002 194.216 52.0002 194.216 51.0752ZM174.466 43.8752L173.991 41.7002C174.366 41.5752 174.566 41.4502 174.791 41.0752C175.166 40.5502 175.691 39.6002 176.366 38.2752C177.041 36.9252 177.616 35.6502 178.091 34.4502L180.141 35.2002C179.666 36.3252 179.091 37.5252 178.416 38.8002C177.741 40.0752 177.216 40.9752 176.791 41.5002L179.291 41.3752L180.466 39.0252L182.366 39.9752C181.741 41.3252 180.991 42.7502 180.141 44.2502C179.316 45.7502 178.616 46.8752 178.091 47.6002C178.516 47.5502 179.491 47.4002 180.991 47.1502L181.691 47.0502L181.716 49.2502L178.691 49.7252L176.391 50.1002C175.966 50.1502 175.491 50.2502 174.991 50.3752L174.466 48.2502C174.891 48.1252 175.441 47.7752 175.716 47.3502C176.516 46.1252 177.316 44.8502 178.091 43.5002L176.816 43.5752L175.591 43.6752C175.116 43.7002 174.741 43.7752 174.466 43.8752ZM181.941 51.4502L182.066 52.7002L182.191 53.7502L173.941 55.4252L173.516 53.1752C174.366 53.0752 175.741 52.8252 177.641 52.4252C179.541 52.0252 180.966 51.7002 181.941 51.4502Z" fill="black"/>
</g>
</g>
</g>
<defs>
<clipPath id="clip0_79_3589">
<rect width="460" height="768" fill="white" transform="translate(-39.4996 -38.9998)"/>
</clipPath>
</defs>
</svg>
