<svg width="25" height="24" viewBox="0 0 25 24" fill="none" xmlns="http://www.w3.org/2000/svg">
<g id="Frame 50">
<path id="Icon (Stroke)" d="M18.2222 13.7778C18.2222 11.8441 16.9869 10.1965 15.2595 9.58594C14.7967 9.42234 14.5543 8.91425 14.7179 8.45139C14.8816 7.98887 15.3889 7.74633 15.8516 7.90972C18.2671 8.76348 20 11.0672 20 13.7778C20 17.2142 17.2142 20 13.7778 20C11.0672 20 8.76348 18.2671 7.90972 15.8516C7.74633 15.3889 7.98887 14.8816 8.45139 14.7179C8.91425 14.5543 9.42234 14.7967 9.58594 15.2595C10.1965 16.9869 11.8441 18.2222 13.7778 18.2222C16.2324 18.2222 18.2222 16.2324 18.2222 13.7778ZM11.1111 8.44444C11.1111 6.97169 9.9172 5.77778 8.44444 5.77778C6.97169 5.77778 5.77778 6.97169 5.77778 8.44444C5.77778 9.9172 6.97169 11.1111 8.44444 11.1111C9.9172 11.1111 11.1111 9.9172 11.1111 8.44444ZM12.8889 8.44444C12.8889 10.899 10.899 12.8889 8.44444 12.8889C5.98985 12.8889 4 10.899 4 8.44444C4 5.98985 5.98985 4 8.44444 4C10.899 4 12.8889 5.98985 12.8889 8.44444Z" fill="#464646"/>
</g>
</svg>
