<svg width="24" height="24" viewBox="0 0 24 24" fill="none" xmlns="http://www.w3.org/2000/svg">
<g id="icon">
<g id="&#229;&#188;&#128;&#229;&#167;&#139;">
<path id="Vector (Stroke)" d="M18.9599 12C18.9599 8.15616 15.8438 5.04011 12 5.04011C8.15616 5.04011 5.04011 8.15616 5.04011 12C5.04011 15.8438 8.15616 18.9599 12 18.9599C15.8438 18.9599 18.9599 15.8438 18.9599 12ZM20.5065 12C20.5065 16.698 16.698 20.5065 12 20.5065C7.30197 20.5065 3.49347 16.698 3.49347 12C3.49347 7.30197 7.30197 3.49347 12 3.49347C16.698 3.49347 20.5065 7.30197 20.5065 12Z" fill="#3D7078"/>
<path id="Vector (Stroke)_2" d="M10.0667 8.6513C10.3059 8.51321 10.6008 8.51321 10.84 8.6513L15.4799 11.33C15.7191 11.4681 15.8665 11.7236 15.8666 11.9998C15.8666 12.2761 15.7192 12.5316 15.4799 12.6697L10.84 15.3484C10.6007 15.4865 10.3059 15.4865 10.0667 15.3484C9.82747 15.2102 9.68002 14.9548 9.68002 14.6785V9.32116C9.68002 9.04488 9.82742 8.78944 10.0667 8.6513ZM11.2267 13.3396L13.5466 11.9998L11.2267 10.6601V13.3396Z" fill="#3D7078"/>
</g>
</g>
</svg>
