<svg width="24" height="24" viewBox="0 0 24 24" fill="none" xmlns="http://www.w3.org/2000/svg">
<g id="Frame" clip-path="url(#clip0_36_1781)">
<g id="Group 15">
<path id="Vector (Stroke)" d="M5.70746 13.7979C5.70746 11.3155 7.71978 9.30319 10.2021 9.30319H14.6968C15.1933 9.30319 15.5957 9.70566 15.5957 10.2021C15.5957 10.6986 15.1933 11.1011 14.6968 11.1011H10.2021C8.71272 11.1011 7.50533 12.3084 7.50533 13.7979C7.50533 15.2873 8.71272 16.4947 10.2021 16.4947H17.3936C18.883 16.4947 20.0904 15.2873 20.0904 13.7979C20.0904 13.1133 19.8363 12.49 19.4162 12.014C19.088 11.6419 19.1233 11.074 19.4952 10.7455C19.8674 10.417 20.4361 10.4523 20.7646 10.8245C21.4634 11.6163 21.8883 12.6586 21.8883 13.7979C21.8883 16.2802 19.8759 18.2925 17.3936 18.2925H10.2021C7.71978 18.2925 5.70746 16.2802 5.70746 13.7979Z" fill="#848484"/>
<path id="Vector (Stroke)_2" d="M16.4947 10.2021C16.4947 8.71272 15.2873 7.50533 13.7979 7.50533H6.60643C5.11702 7.50533 3.90962 8.71272 3.90962 10.2021C3.90962 10.8867 4.16376 11.51 4.58382 11.986C4.91203 12.3581 4.87676 12.926 4.50482 13.2545C4.1326 13.583 3.56396 13.5477 3.23542 13.1755C2.5366 12.3837 2.11176 11.3414 2.11176 10.2021C2.11176 7.71978 4.12409 5.70746 6.60643 5.70746H13.7979C16.2802 5.70746 18.2926 7.71978 18.2926 10.2021C18.2926 12.6845 16.2802 14.6968 13.7979 14.6968H9.30323C8.80676 14.6968 8.40429 14.2943 8.40429 13.7979C8.40429 13.3014 8.80676 12.8989 9.30323 12.8989H13.7979C15.2873 12.8989 16.4947 11.6915 16.4947 10.2021Z" fill="#848484"/>
</g>
</g>
<defs>
<clipPath id="clip0_36_1781">
<rect width="24" height="24" fill="white"/>
</clipPath>
</defs>
</svg>
