<svg width="25" height="24" viewBox="0 0 25 24" fill="none" xmlns="http://www.w3.org/2000/svg">
<g id="Frame 3">
<path id="Icon (Stroke)" d="M4.81362 19.1864V14.3955C4.37263 14.3955 4.01514 14.038 4.01514 13.597C4.01514 13.156 4.37263 12.7985 4.81362 12.7985V11.2015C4.37263 11.2015 4.01514 10.844 4.01514 10.403C4.01514 9.96204 4.37263 9.60454 4.81362 9.60454V4.81362C4.81362 4.37263 5.17112 4.01514 5.61211 4.01514C6.0531 4.01514 6.4106 4.37263 6.4106 4.81362V9.60454C6.85159 9.60454 7.20908 9.96204 7.20908 10.403C7.20908 10.844 6.85159 11.2015 6.4106 11.2015V12.7985C6.85159 12.7985 7.20908 13.156 7.20908 13.597C7.20908 14.038 6.85159 14.3955 6.4106 14.3955V19.1864C6.4106 19.6274 6.0531 19.9849 5.61211 19.9849C5.17112 19.9849 4.81362 19.6274 4.81362 19.1864ZM18.3879 15.1939C18.3879 14.7806 18.0738 14.4403 17.6713 14.3994L17.5894 14.3955H10.403C9.96204 14.3955 9.60454 14.753 9.60454 15.1939V17.5894L9.60844 17.6713C9.64943 18.0738 9.98967 18.3879 10.403 18.3879H17.5894L17.6713 18.384C18.0738 18.343 18.3879 18.0028 18.3879 17.5894V15.1939ZM14.3955 6.4106C14.3955 5.9696 14.038 5.61211 13.597 5.61211H10.403C9.96204 5.61211 9.60454 5.9696 9.60454 6.4106V8.80606L9.60844 8.88793C9.64943 9.29047 9.98967 9.60454 10.403 9.60454H13.597C14.038 9.60454 14.3955 9.24705 14.3955 8.80606V6.4106ZM19.9849 17.5894L19.9817 17.7126C19.9176 18.9783 18.8711 19.9849 17.5894 19.9849H10.403C9.08005 19.9849 8.00757 18.9124 8.00757 17.5894V15.1939C8.00757 13.871 9.08005 12.7985 10.403 12.7985H17.5894L17.7126 12.8016C18.9783 12.8657 19.9849 13.9123 19.9849 15.1939V17.5894ZM15.9924 8.80606L15.9893 8.92926C15.9252 10.195 14.8786 11.2015 13.597 11.2015H10.403C9.08005 11.2015 8.00757 10.129 8.00757 8.80606V6.4106C8.00757 5.08762 9.08005 4.01514 10.403 4.01514H13.597C14.9199 4.01514 15.9924 5.08762 15.9924 6.4106V8.80606Z" fill="#848484"/>
</g>
</svg>
