<svg width="25" height="24" viewBox="0 0 25 24" fill="none" xmlns="http://www.w3.org/2000/svg">
<g id="Frame 3">
<path id="Vector" d="M21.5817 2.41815H2.41797V21.5818H21.5817V2.41815Z" fill="white" fill-opacity="0.01"/>
<path id="Vector (Stroke)" d="M18.3879 6.01135C18.3879 5.79086 18.2092 5.61211 17.9887 5.61211H6.01135C5.79086 5.61211 5.61211 5.79086 5.61211 6.01135V17.9887C5.61211 18.2092 5.79086 18.3879 6.01135 18.3879H17.9887C18.2092 18.3879 18.3879 18.2092 18.3879 17.9887V6.01135ZM19.9849 17.9887C19.9849 19.0911 19.0911 19.9849 17.9887 19.9849H6.01135C4.90887 19.9849 4.01514 19.0911 4.01514 17.9887V6.01135C4.01514 4.90887 4.90887 4.01514 6.01135 4.01514H17.9887C19.0911 4.01514 19.9849 4.90887 19.9849 6.01135V17.9887Z" fill="#848484"/>
<path id="Vector (Stroke)_2" d="M11.2017 15.194V8.80606C11.2017 8.36506 11.5592 8.00757 12.0001 8.00757C12.4411 8.00757 12.7986 8.36506 12.7986 8.80606V15.194C12.7986 15.6349 12.4411 15.9924 12.0001 15.9924C11.5592 15.9924 11.2017 15.6349 11.2017 15.194Z" fill="#848484"/>
<path id="Vector (Stroke)_3" d="M15.1937 11.2015C15.6347 11.2015 15.9922 11.559 15.9922 12C15.9922 12.441 15.6347 12.7985 15.1937 12.7985H8.80581C8.36482 12.7985 8.00732 12.441 8.00732 12C8.00732 11.559 8.36482 11.2015 8.80581 11.2015H15.1937Z" fill="#848484"/>
</g>
</svg>
