<svg width="24" height="24" viewBox="0 0 24 24" fill="none" xmlns="http://www.w3.org/2000/svg">
<g id="icon">
<g id="&#229;&#129;&#156;&#230;&#173;&#162;">
<g id="Group 8">
<path id="Vector (Stroke)" d="M18.9586 12C18.9586 8.15684 15.8431 5.04136 12 5.04136C8.15684 5.04136 5.04136 8.15684 5.04136 12C5.04136 15.8431 8.15684 18.9586 12 18.9586C15.8431 18.9586 18.9586 15.8431 18.9586 12ZM20.505 12C20.505 16.6972 16.6972 20.505 12 20.505C7.30281 20.505 3.495 16.6972 3.495 12C3.495 7.30281 7.30281 3.495 12 3.495C16.6972 3.495 20.505 7.30281 20.505 12Z" fill="#3D7078"/>
<path id="Vector (Stroke)_2" d="M9.29385 14.3195V9.68044C9.29385 9.25342 9.64002 8.90726 10.067 8.90726C10.4941 8.90726 10.8402 9.25342 10.8402 9.68044V14.3195C10.8402 14.7465 10.4941 15.0927 10.067 15.0927C9.64002 15.0927 9.29385 14.7465 9.29385 14.3195Z" fill="#3D7078"/>
<path id="Vector (Stroke)_3" d="M13.1598 14.3195V9.68044C13.1598 9.25342 13.5059 8.90726 13.9329 8.90726C14.36 8.90726 14.7061 9.25342 14.7061 9.68044V14.3195C14.7061 14.7465 14.36 15.0927 13.9329 15.0927C13.5059 15.0927 13.1598 14.7465 13.1598 14.3195Z" fill="#3D7078"/>
</g>
</g>
</g>
</svg>
