<svg width="358" height="358" viewBox="0 0 358 358" fill="none" xmlns="http://www.w3.org/2000/svg">
<g id="wancheng">
<g id="Frame 122">
<g id="_30&#230;&#151;&#160;&#230;&#149;&#176;&#230;&#141;&#174;">
<g id="Group 46">
<circle id="Ellipse 15" cx="178.922" cy="172" r="92" fill="url(#paint0_linear_137_440)"/>
<g id="Group 40">
<path id="Vector 14" d="M104.422 159C104.157 156.408 103.022 151.691 105.422 153C110.922 156 114.922 161.5 118.422 170.5C119.865 174.212 120.922 178.517 120.922 182.5C120.922 187.5 121.505 189.533 123.422 193.5C125.531 197.867 128.778 198.626 131.422 203C135.74 210.145 137.173 215.685 136.422 224C135.91 229.663 132.422 238 132.422 238L121.922 243C121.922 243 119.479 234.669 118.422 230C116.686 222.332 117.922 221 114.422 211.5C112.624 206.621 108.899 201.331 106.422 196.5C102.613 189.071 101.072 184.97 101.421 176.5C101.691 169.956 105.114 165.785 104.422 159Z" fill="#B2DBE4"/>
<path id="Vector 15 (Stroke)" d="M111.412 167.402C110.924 164.944 110.931 164.281 109.922 162C108.913 159.719 105.922 156 105.922 156C105.922 156 107.919 159.732 108.922 162C109.925 164.268 109.966 165.253 110.432 167.598C110.859 169.752 110.929 171.717 110.917 173.717C110.905 175.705 110.811 177.764 110.923 180.024C111.126 184.118 111.13 187.01 111.932 191.097C112.327 193.111 112.697 194.514 113.233 195.863C113.769 197.209 114.464 198.486 115.489 200.251C116.905 202.687 118.373 204.161 120.026 206.306C121.273 207.922 122.294 208.919 123.122 209.882C123.957 210.853 124.683 211.881 125.462 213.697C127.143 217.617 127.022 220.149 127.424 224.546C127.626 226.752 127.626 229.604 127.575 231.916C127.55 233.07 127.511 234.085 127.479 234.811C127.464 235.173 127.45 235.463 127.439 235.663C127.434 235.763 127.43 235.841 127.427 235.893C127.425 235.918 127.425 235.938 127.424 235.951L127.423 235.966V235.971L128.421 236.029V236.023L128.422 236.008C128.423 235.994 128.424 235.974 128.426 235.947C128.429 235.894 128.432 235.816 128.438 235.715C128.448 235.513 128.462 235.219 128.479 234.854C128.511 234.122 128.55 233.101 128.575 231.938C128.626 229.619 128.627 226.72 128.42 224.454C128.027 220.155 128.143 217.408 126.382 213.303C125.559 211.385 124.776 210.271 123.881 209.23C122.98 208.182 122.051 207.295 120.817 205.694C119.082 203.444 117.728 202.112 116.354 199.749C115.331 197.989 114.668 196.766 114.162 195.494C113.657 194.225 113.302 192.889 112.912 190.903C112.128 186.907 112.126 184.109 111.921 179.976C111.811 177.751 111.905 175.761 111.917 173.723C111.929 171.695 111.859 169.653 111.412 167.402Z" fill="white"/>
<g id="Vector">
<path d="M115.716 175.559C115.503 176.621 114.849 177.788 114.143 178.797C113.432 179.813 112.645 180.701 112.134 181.212L111.71 180.788C112.199 180.299 112.962 179.437 113.651 178.453C114.345 177.462 114.422 177.5 114.422 177.5L115.716 175.559Z" fill="white"/>
<path d="M106.922 173C106.922 173 107.405 173.3 108.381 173.908C109.345 174.509 110.376 174.975 111.027 175.219L110.816 175.781C110.134 175.525 109.066 175.042 108.063 174.417C107.073 173.8 106.093 173.013 105.653 172.134L106.922 173Z" fill="white"/>
<path d="M107.422 182.5C107.422 182.5 110.154 183.7 111.422 183.7V184.3C110.023 184.3 106.75 183.576 104.678 180.675L107.422 182.5Z" fill="white"/>
<path d="M117.72 181.533C117.512 183.404 116.607 185.161 115.578 186.588C114.548 188.016 113.378 189.136 112.606 189.736L112.237 189.264C112.966 188.697 114.096 187.617 115.091 186.237C116.087 184.855 115.922 185 115.922 185L117.72 181.533Z" fill="white"/>
<path d="M119.2 193.611C118.776 194.671 117.99 195.583 117.196 196.287C116.401 196.992 115.579 197.507 115.056 197.769L114.788 197.231C115.265 196.993 116.043 196.507 116.798 195.838C117.554 195.167 117.749 195.094 117.749 195.094L119.2 193.611ZM108.422 190C108.422 190 108.558 190.126 109.678 190.806C110.795 191.483 111.878 191.975 112.527 192.219L112.316 192.781C111.633 192.525 110.516 192.017 109.366 191.319C108.219 190.624 107.019 189.727 106.188 188.688L108.422 190Z" fill="white"/>
<path d="M113.576 198.871C113.576 198.871 114.809 199.2 115.422 199.2V199.8C114.701 199.8 112.982 199.484 111.71 198.212L113.576 198.871Z" fill="white"/>
<path d="M121.213 199.573C120.998 200.431 120.512 201.22 120.006 201.851C119.498 202.483 118.955 202.975 118.602 203.24L118.242 202.76C118.556 202.525 119.062 202.067 119.538 201.475C119.538 201.475 119.825 201.164 120.006 200.963C120.487 200.429 121.213 199.573 121.213 199.573Z" fill="white"/>
<path d="M116.264 203.781C116.264 203.781 117.954 204.2 118.922 204.2V204.8C117.89 204.8 115.33 204.494 113.268 203.257L116.264 203.781Z" fill="white"/>
<path d="M133.713 225.573C133.596 226.039 133.292 226.51 132.91 226.956C132.524 227.406 132.038 227.853 131.523 228.271C130.495 229.105 129.329 229.84 128.567 230.263L128.276 229.737C129.015 229.327 130.15 228.612 131.146 227.805C131.644 227.401 132.151 227.04 132.151 227.04L133.713 225.573Z" fill="white"/>
<path d="M124.553 230.51C124.553 230.51 124.346 230.438 125.532 230.908C126.717 231.378 127.818 231.622 128.459 231.702L128.385 232.298C127.693 232.211 126.543 231.955 125.312 231.467C124.081 230.979 122.749 230.251 121.71 229.212L124.553 230.51Z" fill="white"/>
</g>
</g>
<g id="Group 39">
<path id="Vector 2 (Stroke)" d="M96.4265 210.731C101.614 213.614 106.794 218.708 111.167 223.921C115.537 229.13 119.088 234.44 121.018 237.735L121.394 237.509C119.452 234.194 115.888 228.863 111.501 223.634C107.116 218.407 101.895 213.263 96.6366 210.341L96.4265 210.731Z" fill="#C8E4E1"/>
<path id="Vector 3" d="M94.8686 200.899C96.5838 201.99 96.6251 206.702 96.7842 210.723C96.7842 210.723 89.3194 208.246 89.443 204.633C90.3156 201.581 92.352 200.377 94.8686 200.899Z" fill="#C8E4E1"/>
<path id="Vector 4" d="M100.235 206.63C99.2264 207.767 100.226 211.069 100.989 213.913C100.989 213.913 105.456 210.48 104.576 207.983C103.274 206.041 101.951 205.716 100.235 206.63Z" fill="#C8E4E1"/>
<path id="Vector 5" d="M105.083 212.85C104.075 213.987 105.459 216.838 106.583 218.938C106.583 218.938 110.996 216.391 110.117 213.893C108.815 211.952 107.153 211.866 105.083 212.85Z" fill="#C8E4E1"/>
<path id="Vector 6" d="M110.621 218.761C109.613 219.898 110.875 222.181 111.999 224.281C111.999 224.281 116.035 221.927 115.155 219.429C113.949 218.037 112.94 217.964 110.621 218.761Z" fill="#C8E4E1"/>
<path id="Vector 7" d="M103.775 223.165C104.229 221.502 107.02 221.545 109.566 221.547C109.566 221.547 109.739 226.995 106.972 227.463C105.021 226.988 104.378 225.99 103.775 223.165Z" fill="#C8E4E1"/>
<path id="Vector 10" d="M110.053 228.283C111.905 227.331 113.154 228.268 115.204 228.635C115.204 228.635 114.765 231.621 112.229 232.451C110.547 231.579 109.633 229.919 110.053 228.283Z" fill="#C8E4E1"/>
<path id="Vector 13" d="M114.909 224.6C114.285 226.587 115.419 227.659 116.128 229.618C116.128 229.618 118.997 228.679 119.385 226.04C118.242 224.529 116.45 223.909 114.909 224.6Z" fill="#C8E4E1"/>
<path id="Vector 11" d="M114.261 234.169C114.78 233.192 116.981 233.087 119.031 233.454C119.031 233.454 118.94 237.288 116.404 238.117C115.071 238.092 113.841 235.805 114.261 234.169Z" fill="#C8E4E1"/>
<path id="Vector 12" d="M121.163 231.17C120.413 231.716 120.279 234.39 120.325 236.181C120.325 236.181 124.364 234.867 124.884 232.577C124.789 231.417 122.445 230.647 121.163 231.17Z" fill="#C8E4E1"/>
<path id="Vector 8" d="M98.8046 218.284C99.9076 216.771 102.546 217.341 105.092 217.342C105.092 217.342 104.28 222.578 101.513 223.047C99.7458 223.087 98.4174 220.14 98.8046 218.284Z" fill="#C8E4E1"/>
<path id="Vector 9" d="M93.5464 212.781C94.8337 211.425 97.4868 212.374 100.013 212.708C100.013 212.708 98.5932 217.286 95.7883 217.388C94.323 216.484 92.9258 214.569 93.5464 212.781Z" fill="#C8E4E1"/>
</g>
<g id="Group 38">
<path id="Vector 2" d="M227.42 236.5C233.92 220.5 252.32 184.4 273.92 168" stroke="#C8E4E1"/>
<path id="Vector 3_2" d="M274.42 146C270.92 149 272.42 159.5 273.42 168.5C273.42 168.5 289.42 160.5 287.92 152.5C284.92 146 279.92 144 274.42 146Z" fill="#C8E4E1"/>
<path id="Vector 4_2" d="M264.254 160.543C266.913 162.737 265.774 170.417 265.014 177C265.014 177 253.78 170.851 254.92 165C257.199 160.246 260.074 159.08 264.254 160.543Z" fill="#C8E4E1"/>
<path id="Vector 5_2" d="M255.42 176C258.079 178.194 255.92 185 254.095 190.048C254.095 190.048 243.28 185.851 244.42 180C246.7 175.246 250.42 174.5 255.42 176Z" fill="#C8E4E1"/>
<path id="Vector 6_2" d="M244.92 191C247.579 193.194 245.504 198.696 243.679 203.744C243.679 203.744 233.78 199.851 234.92 194C237.17 190.5 239.42 190 244.92 191Z" fill="#C8E4E1"/>
<path id="Vector 7_2" d="M261.86 198.518C260.273 194.968 253.992 195.995 248.249 196.847C248.249 196.847 249.701 209.028 256.101 209.148C260.341 207.439 261.455 205.005 261.86 198.518Z" fill="#C8E4E1"/>
<path id="Vector 10_2" d="M249.42 212C244.92 210.5 242.42 213 237.92 214.5C237.92 214.5 239.92 221 245.92 222C249.42 219.5 250.92 215.5 249.42 212Z" fill="#C8E4E1"/>
<path id="Vector 11_2" d="M241.92 226.5C240.42 224.5 235.42 225 230.919 226.5C230.919 226.5 232.42 235 238.42 236C241.42 235.5 243.42 230 241.92 226.5Z" fill="#C8E4E1"/>
<path id="Vector 12_2" d="M225.337 222.129C227.213 223.094 228.42 229 228.92 233C228.92 233 219.367 231.423 217.42 226.5C217.241 223.887 222.269 221.392 225.337 222.129Z" fill="#C8E4E1"/>
<path id="Vector 8_2" d="M271.42 186C268.42 183 262.663 185.148 256.92 186C256.92 186 260.521 197.38 266.92 197.5C270.92 197 272.92 190 271.42 186Z" fill="#C8E4E1"/>
<path id="Vector 9_2" d="M281.42 172C278.058 169.412 272.395 172.407 266.81 173.994C266.81 173.994 271.559 183.708 277.921 183C280.92 180.5 283.424 175.773 281.42 172Z" fill="#C8E4E1"/>
</g>
<g id="Group 45">
<mask id="mask0_137_440" style="mask-type:alpha" maskUnits="userSpaceOnUse" x="86" y="80" width="185" height="184">
<circle id="Ellipse 16" cx="178.922" cy="172" r="92" fill="#BDE1E9"/>
</mask>
<g mask="url(#mask0_137_440)">
<g id="Group 44">
<rect id="Rectangle 34" x="119.922" y="231" width="117" height="40" rx="3" fill="white"/>
<rect id="Rectangle 35" x="130.357" y="236.535" width="49.5791" height="5.23077" rx="1" fill="#E8F0F0"/>
<rect id="Rectangle 36" x="130.357" y="245.092" width="94.8818" height="5.23077" rx="1" fill="#E8F0F0"/>
<rect id="Rectangle 37" x="130.357" y="253.108" width="94.8818" height="5.23077" rx="1" fill="#E8F0F0"/>
<rect id="Rectangle 38" x="130.357" y="262" width="94.8818" height="5.23077" rx="1" fill="#E8F0F0"/>
</g>
</g>
</g>
<g id="Group 41">
<circle id="Ellipse 17" cx="75.3809" cy="159.108" r="5.40137" fill="#E8F4F3"/>
<circle id="Ellipse 18" cx="83.2969" cy="153.707" r="1.67578" fill="#E8F4F3"/>
<circle id="Ellipse 19" cx="114.617" cy="133.762" r="2.64551" fill="#E8F4F3"/>
<circle id="Ellipse 22" cx="164.931" cy="131.116" r="2.64551" fill="#E8F4F3"/>
<circle id="Ellipse 23" cx="205.133" cy="119.445" r="1.80969" fill="#E8F4F3"/>
<circle id="Ellipse 20" cx="100.336" cy="101.084" r="3.67719" fill="#E8F4F3"/>
<circle id="Ellipse 21" cx="197.439" cy="111.032" r="5.0484" fill="#E8F4F3"/>
<circle id="Ellipse 24" cx="263.954" cy="112.587" r="4.4184" fill="#E8F4F3"/>
<circle id="Ellipse 16_2" cx="284.92" cy="167" r="2" fill="#E8F4F3"/>
</g>
<g id="Group 43">
<rect id="Rectangle 33" x="119.922" y="184" width="117" height="40" rx="3" fill="white"/>
<rect id="Rectangle 35_2" x="130.357" y="189.535" width="49.5791" height="5.23077" rx="1" fill="#E8F0F0"/>
<rect id="Rectangle 36_2" x="130.357" y="198.092" width="94.8818" height="5.23077" rx="1" fill="#E8F0F0"/>
<rect id="Rectangle 37_2" x="130.357" y="206.108" width="94.8818" height="5.23077" rx="1" fill="#E8F0F0"/>
<rect id="Rectangle 38_2" x="130.357" y="215" width="94.8818" height="5.23077" rx="1" fill="#E8F0F0"/>
</g>
<g id="Group 42">
<rect id="Rectangle 32" x="119.922" y="137" width="117" height="40" rx="3" fill="white"/>
<rect id="Rectangle 35_3" x="130.357" y="142.535" width="49.5791" height="5.23077" rx="1" fill="#ABDCD6"/>
<rect id="Rectangle 36_3" x="130.357" y="151.092" width="94.8818" height="5.23077" rx="1" fill="#ABDCD6"/>
<rect id="Rectangle 37_3" x="130.357" y="159.108" width="94.8818" height="5.23077" rx="1" fill="#ABDCD6"/>
<rect id="Rectangle 38_3" x="130.357" y="168" width="94.8818" height="5.23077" rx="1" fill="#ABDCD6"/>
</g>
</g>
</g>
<path id="&#233;&#151;&#174;&#229;&#141;&#183;&#229;&#183;&#178;&#229;&#174;&#140;&#230;&#136;&#144;" d="M126.772 311.368L127.52 310.488C127.982 310.862 128.554 311.39 129.28 312.094C130.006 312.776 130.578 313.348 130.952 313.788L130.072 314.8C129.72 314.338 129.192 313.744 128.488 313.018C127.806 312.292 127.234 311.742 126.772 311.368ZM131.964 313.282V312.05H142.986V326.944C142.92 329.122 142.48 329.474 139.84 329.738L138.19 329.892L137.772 328.66L139.664 328.528C141.446 328.396 141.776 328.066 141.776 326.614V313.282H131.964ZM127.806 329.914H126.574V314.69L127.806 314.734V329.914ZM138.564 325.118H130.974V316.956H138.564V325.118ZM137.42 323.996V318.078H132.14V323.996H137.42ZM159.012 319.442H154.436C153.886 320.256 153.16 321.092 152.28 321.928H161.19L161.014 324.436C160.882 325.932 160.376 326.262 158.33 326.394L156.724 326.504L156.394 325.47L158.154 325.36C159.606 325.228 159.782 325.096 159.87 324.194L159.98 322.94H152.566V326.944C152.566 328.264 152.94 328.594 154.26 328.66C155.294 328.704 156.35 328.726 157.384 328.726C158.418 328.726 159.474 328.704 160.508 328.66C162.092 328.572 162.4 328.44 162.576 327.406C162.686 326.878 162.818 326.02 162.84 325.514L163.962 325.932C163.896 326.79 163.786 327.494 163.632 328.022C163.368 329.32 162.95 329.606 160.816 329.694C159.804 329.76 158.66 329.782 157.362 329.782C156.086 329.782 154.92 329.76 153.886 329.694C151.972 329.628 151.356 329.034 151.356 327.186V322.742C150.234 323.644 148.914 324.59 147.374 325.536L146.67 324.524C149.442 322.918 151.554 321.224 152.984 319.442H147.242V318.408H153.732C154.282 317.572 154.722 316.714 155.052 315.856H148.21V314.8H155.404C155.822 313.458 156.152 312.028 156.35 310.466L157.516 310.576C157.296 312.116 156.988 313.524 156.614 314.8H165.04V315.856H156.262C155.932 316.802 155.536 317.66 155.096 318.408H165.986V319.442H160.354C161.718 321.136 163.786 322.522 166.536 323.644L165.986 324.744C162.73 323.182 160.486 321.554 159.012 319.442ZM162.29 310.884L163.192 311.456C162.73 312.204 161.85 313.282 160.552 314.712L159.672 314.052C160.728 312.952 161.608 311.896 162.29 310.884ZM153.49 314.008L152.654 314.712C152.324 314.25 151.906 313.7 151.378 313.062C150.872 312.424 150.41 311.918 150.036 311.544L150.872 310.95C151.246 311.324 151.686 311.83 152.236 312.468C152.786 313.106 153.204 313.612 153.49 314.008ZM186.303 323.798L187.579 324.238C187.557 324.546 187.491 325.14 187.381 326.042L187.315 326.57C186.919 329.034 186.611 329.276 183.751 329.474C182.035 329.54 180.495 329.584 179.109 329.584C177.723 329.584 176.161 329.54 174.445 329.474C171.717 329.298 171.057 328.814 170.991 326.064V315.592L172.267 315.658V318.848H184.213V313.106H170.309V311.874H185.489V320.102H172.267V325.756C172.267 327.78 172.685 328.132 174.819 328.22C176.403 328.286 177.833 328.33 179.131 328.33C180.429 328.33 181.859 328.286 183.443 328.22C185.599 328.066 185.753 328 186.105 326.152C186.215 325.316 186.281 324.524 186.303 323.798ZM207.609 314.118H193.023V317.132H191.857V312.996H200.041C199.755 311.962 199.491 311.104 199.249 310.444L200.437 310.246C200.635 310.73 200.921 311.654 201.317 312.996H208.775V317.11H207.609V314.118ZM194.101 317.176H206.531V318.276H194.101V317.176ZM208.467 325.118L209.567 325.514C209.545 326.372 209.457 327.12 209.303 327.78C209.083 329.1 208.511 329.474 206.509 329.562C206.289 329.584 205.959 329.584 205.519 329.584C205.057 329.584 204.727 329.584 204.507 329.562C202.681 329.54 202.021 328.924 202.021 327.076V322.61H197.973C197.951 322.786 197.951 323.006 197.951 323.292C197.665 326.966 196.125 328.66 191.461 330.332L190.823 329.254C195.245 327.736 196.367 326.482 196.697 323.204L196.719 322.61H191.351V321.488H209.325V322.61H203.231V326.856C203.231 328.088 203.583 328.396 204.815 328.462C204.991 328.484 205.255 328.484 205.629 328.484C205.981 328.484 206.245 328.484 206.421 328.462C207.763 328.374 208.071 328.22 208.247 327.164C208.357 326.658 208.423 325.976 208.467 325.118ZM230.785 324.612L231.819 325.184C231.665 326.086 231.467 326.944 231.203 327.802C230.763 329.364 230.191 329.804 229.223 329.804C228.277 329.804 227.331 329.1 226.429 327.714C226.055 327.142 225.725 326.482 225.417 325.756C224.383 326.922 223.041 328.11 221.391 329.32L220.599 328.418C222.447 327.076 223.899 325.8 224.955 324.546C224.141 322.148 223.547 318.98 223.173 315.064H215.781V318.584H221.259C221.237 319.31 221.193 320.454 221.105 321.994C221.039 323.512 220.973 324.524 220.929 325.008C220.753 327.01 220.313 327.406 218.069 327.626L216.705 327.758L216.353 326.57L217.893 326.46C219.477 326.328 219.653 326.152 219.785 324.722L219.917 322.192L220.027 319.75H215.781C215.759 322.126 215.561 324.084 215.165 325.624C214.769 327.142 214.087 328.66 213.119 330.178L211.953 329.606C214.021 326.57 214.593 324.524 214.637 319.574V313.898H223.085L222.799 310.29L223.965 310.312L224.009 310.994L224.251 313.898H231.313V315.064H224.361C224.669 318.474 225.153 321.268 225.813 323.468C227.133 321.642 228.035 319.662 228.937 316.868L230.015 317.264C228.937 320.498 227.859 322.72 226.253 324.766C226.627 325.712 227.045 326.526 227.507 327.252C228.123 328.132 228.717 328.506 229.179 328.506C229.729 328.506 230.037 328.154 230.323 326.988C230.521 326.306 230.675 325.514 230.785 324.612ZM229.399 312.842L228.607 313.7C228.255 313.304 227.793 312.842 227.243 312.314C226.693 311.786 226.209 311.368 225.813 311.082L226.539 310.312C226.935 310.598 227.419 310.994 227.991 311.5C228.563 312.006 229.025 312.468 229.399 312.842Z" fill="#A1B3B7"/>
</g>
</g>
<defs>
<linearGradient id="paint0_linear_137_440" x1="178.922" y1="80" x2="178.922" y2="264" gradientUnits="userSpaceOnUse">
<stop stop-color="#C0E6EE"/>
<stop offset="1" stop-color="#CADADB" stop-opacity="0"/>
</linearGradient>
</defs>
</svg>
