<svg width="31" height="30" viewBox="0 0 31 30" fill="none" xmlns="http://www.w3.org/2000/svg">
<g id="Frame" clip-path="url(#clip0_36_2997)">
<g id="Group 18">
<path id="Vector (Stroke)" d="M9.15215 5.65215V20.5215H20.7172V5.65215H9.15215ZM22.3694 20.5215C22.3694 21.434 21.6297 22.1737 20.7172 22.1737H9.15215C8.2397 22.1737 7.5 21.434 7.5 20.5215V5.65215C7.5 4.73969 8.23969 4 9.15215 4H20.7172C21.6297 4 22.3694 4.7397 22.3694 5.65215V20.5215Z" fill="#505050"/>
<path id="Vector (Stroke)_2" d="M17.4131 14.739C17.8693 14.739 18.2391 15.1088 18.2391 15.5651C18.2391 16.0213 17.8693 16.3911 17.4131 16.3911H11.6305C11.1743 16.3911 10.8044 16.0213 10.8044 15.5651C10.8044 15.1088 11.1743 14.739 11.6305 14.739H17.4131Z" fill="#505050"/>
<path id="Vector (Stroke)_3" d="M14.5218 17.2172C14.978 17.2172 15.3479 17.5871 15.3479 18.0433C15.3479 18.4995 14.978 18.8694 14.5218 18.8694H11.6305C11.1743 18.8694 10.8044 18.4995 10.8044 18.0433C10.8044 17.5871 11.1743 17.2172 11.6305 17.2172H14.5218Z" fill="#505050"/>
<path id="Vector (Stroke)_4" d="M17.4131 7.30432C17.8693 7.30432 18.2391 7.67417 18.2391 8.1304V12.2608C18.2391 12.717 17.8693 13.0869 17.4131 13.0869H11.6305C11.1743 13.0869 10.8044 12.717 10.8044 12.2608V8.1304C10.8044 7.67417 11.1743 7.30432 11.6305 7.30432H17.4131ZM12.4566 11.4347H16.587V8.95647H12.4566V11.4347Z" fill="#505050"/>
</g>
</g>
<defs>
<clipPath id="clip0_36_2997">
<rect width="30" height="30" fill="white" transform="translate(0.5)"/>
</clipPath>
</defs>
</svg>
