<svg width="22" height="22" viewBox="0 0 22 22" fill="none" xmlns="http://www.w3.org/2000/svg">
<g id="Group 6">
<path id="Vector (Stroke)" d="M19.25 1.375C19.7563 1.375 20.1667 1.78541 20.1667 2.29167V5.95833C20.1667 6.46459 19.7563 6.875 19.25 6.875H2.75C2.24374 6.875 1.83334 6.46459 1.83334 5.95833V2.29167C1.83334 1.78541 2.24374 1.375 2.75 1.375H19.25ZM3.66667 5.04167H18.3333V3.20833H3.66667V5.04167Z" fill="#38818D"/>
<path id="Vector (Stroke)_2" d="M19.25 8.25C19.7563 8.25 20.1667 8.66041 20.1667 9.16667V12.8333C20.1667 13.3396 19.7563 13.75 19.25 13.75H2.75C2.24374 13.75 1.83334 13.3396 1.83334 12.8333V9.16667C1.83334 8.66041 2.24374 8.25 2.75 8.25H19.25ZM3.66667 11.9167H18.3333V10.0833H3.66667V11.9167Z" fill="#38818D"/>
<path id="Vector (Stroke)_3" d="M19.25 15.125C19.7563 15.125 20.1667 15.5354 20.1667 16.0417V19.7083C20.1667 20.2146 19.7563 20.625 19.25 20.625H2.75C2.24374 20.625 1.83334 20.2146 1.83334 19.7083V16.0417C1.83334 15.5354 2.24374 15.125 2.75 15.125H19.25ZM3.66667 18.7917H18.3333V16.9583H3.66667V18.7917Z" fill="#38818D"/>
</g>
</svg>
