<svg width="25" height="24" viewBox="0 0 25 24" fill="none" xmlns="http://www.w3.org/2000/svg">
<g id="Frame 50">
<g id="Group 1">
<path id="Vector (Stroke)" d="M4.57124 16.9943H19.4288V7.91475H4.57124V16.9943ZM21.0796 17.4071C21.0796 18.0909 20.5253 18.6452 19.8415 18.6452H4.15854C3.47475 18.6452 2.92041 18.0909 2.92041 17.4071V7.50204C2.92041 6.81823 3.47475 6.26392 4.15854 6.26392H19.8415C20.5253 6.26392 21.0796 6.81824 21.0796 7.50204V17.4071Z" fill="#484848"/>
<path id="Vector (Stroke)_2" d="M15.7981 11.0119C16.0489 10.7228 16.5014 10.68 16.8085 10.9162C17.1154 11.1524 17.1608 11.5787 16.9102 11.868L15.1524 13.897C15.0176 14.0524 14.8163 14.1433 14.6033 14.1454C14.3902 14.1474 14.1868 14.0598 14.0487 13.9069L12.2173 11.8779C11.9605 11.5933 11.9973 11.1667 12.2993 10.9248C12.6014 10.6829 13.0542 10.7175 13.3111 11.002L14.5844 12.4122L15.7981 11.0119Z" fill="#484848"/>
</g>
</g>
</svg>
