<svg width="21" height="20" viewBox="0 0 21 20" fill="none" xmlns="http://www.w3.org/2000/svg">
<g id="Frame" clip-path="url(#clip0_53_361)">
<g id="Group 33">
<path id="Vector (Stroke)" d="M14.8333 7.24792C15.2936 7.24792 15.6667 7.62102 15.6667 8.08126C15.6667 8.5415 15.2936 8.91459 14.8333 8.91459H7.33333C6.8731 8.91459 6.5 8.5415 6.5 8.08126C6.5 7.62102 6.8731 7.24792 7.33333 7.24792H14.8333Z" fill="#FF4E4E"/>
<path id="Vector (Stroke)_2" d="M8.79189 4.11172C9.19046 3.88165 9.7003 4.01834 9.9304 4.41689L13.6804 10.9118C13.9105 11.3104 13.7738 11.8202 13.3752 12.0504C12.9766 12.2805 12.4668 12.1438 12.2367 11.7452L8.48672 5.25023C8.25665 4.85166 8.39334 4.34182 8.79189 4.11172Z" fill="#FF4E4E"/>
<path id="Vector (Stroke)_3" d="M12.2367 4.41689C12.4668 4.01834 12.9767 3.88165 13.3752 4.11172C13.7738 4.34182 13.9105 4.85166 13.6804 5.25023L9.93042 11.7452C9.70031 12.1438 9.19049 12.2805 8.79192 12.0504C8.39336 11.8202 8.25662 11.3104 8.48674 10.9118L12.2367 4.41689Z" fill="#FF4E4E"/>
</g>
</g>
<defs>
<clipPath id="clip0_53_361">
<rect width="20" height="20" fill="white" transform="translate(0.5)"/>
</clipPath>
</defs>
</svg>
